<svg width="16" height="16" viewBox="0 0 16 16" fill="none" xmlns="http://www.w3.org/2000/svg">
<g clip-path="url(#clip0_10001_767)">
<path d="M12.3674 8.48254C12.3674 10.9206 14.5007 11.6825 14.5007 11.7333C14.5007 11.7841 14.1452 12.8508 13.3833 13.9683C12.723 14.9841 12.0626 15.9492 10.9452 15.9492C9.87851 15.9492 9.52295 15.3397 8.30391 15.3397C7.08486 15.3397 6.7293 15.9492 5.71343 15.9492C4.64676 16 3.83407 14.9333 3.17375 13.9683C1.80232 11.9873 0.735652 8.33016 2.15787 5.89206C2.86899 4.67302 4.13883 3.91111 5.45946 3.91111C6.52613 3.86032 7.49121 4.57143 8.10073 4.57143C8.71026 4.57143 9.9293 3.75873 11.1484 3.86032C11.7071 3.86032 13.1293 4.06349 14.0944 5.43492C13.9928 5.48571 12.3166 6.45079 12.3674 8.48254ZM10.3357 2.53968C10.8944 1.87937 11.3007 0.914286 11.1991 0C10.3864 0.0507937 9.42137 0.55873 8.81184 1.21905C8.52267 1.55201 8.30204 1.93875 8.16258 2.35712C8.02313 2.7755 7.96759 3.21727 7.99915 3.65714C8.86264 3.75873 9.77692 3.2 10.3357 2.53968Z" fill="#202020"/>
</g>
<defs>
<clipPath id="clip0_10001_767">
<rect width="16" height="16" fill="white"/>
</clipPath>
</defs>
</svg>
