<svg width="16" height="16" viewBox="0 0 16 16" fill="none" xmlns="http://www.w3.org/2000/svg">
<g clip-path="url(#clip0_10001_757)">
<mask id="mask0_10001_757" style="mask-type:alpha" maskUnits="userSpaceOnUse" x="0" y="0" width="17" height="16">
<path fill-rule="evenodd" clip-rule="evenodd" d="M0.00195312 0H16.0011V15.9022H0.00195312V0Z" fill="white"/>
</mask>
<g mask="url(#mask0_10001_757)">
<path fill-rule="evenodd" clip-rule="evenodd" d="M16 8.00054C15.9999 6.4717 15.5618 4.97491 14.7374 3.68736C13.9131 2.39982 12.737 1.37544 11.3486 0.735516C9.96012 0.0955885 8.41738 -0.13309 6.90299 0.0765533C5.3886 0.286197 3.96599 0.925383 2.80359 1.91844C1.64119 2.91149 0.787686 4.21682 0.344117 5.67989C-0.0994522 7.14296 -0.114506 8.70249 0.300739 10.1739C0.715983 11.6452 1.54413 12.9668 2.68715 13.9821C3.83016 14.9974 5.24016 15.6639 6.75022 15.9028V10.3134H4.71911V8.00054H6.75022V6.23787C6.75022 4.23342 7.944 3.12587 9.77244 3.12587C10.6471 3.12587 11.5627 3.28142 11.5627 3.28142V5.25031H10.5538C9.56 5.25031 9.24978 5.8672 9.24978 6.50009V8.00054H11.4684L11.1138 10.3134H9.24978V15.9036C13.0756 15.3036 16 11.9934 16 8.00054Z" fill="#1877F2"/>
</g>
<path fill-rule="evenodd" clip-rule="evenodd" d="M11.1145 10.3126L11.47 7.99967H9.25048V6.49922C9.25048 5.86633 9.5607 5.24944 10.5545 5.24944H11.5634V3.28056C11.5634 3.28056 10.6478 3.125 9.77226 3.125C7.9447 3.125 6.75004 4.23256 6.75004 6.237V7.99967H4.7207V10.3126H6.75181V15.9028C7.57993 16.0328 8.42325 16.0328 9.25137 15.9028V10.3108H11.1154L11.1145 10.3126Z" fill="white"/>
</g>
<defs>
<clipPath id="clip0_10001_757">
<rect width="16" height="16" fill="white"/>
</clipPath>
</defs>
</svg>
