<svg width="16" height="16" viewBox="0 0 16 16" fill="none" xmlns="http://www.w3.org/2000/svg">
<path fill-rule="evenodd" clip-rule="evenodd" d="M15.68 8.18234C15.68 7.61434 15.6293 7.06945 15.5342 6.5459H8V9.64012H12.3058C12.2167 10.1295 12.0293 10.5958 11.7549 11.0108C11.4805 11.4257 11.1248 11.7807 10.7093 12.0543V14.0623H13.2942C14.8071 12.6695 15.68 10.6179 15.68 8.18234Z" fill="#4285F4"/>
<path fill-rule="evenodd" clip-rule="evenodd" d="M8.0009 15.9995C10.1609 15.9995 11.9716 15.2831 13.2951 14.0618L10.7102 12.0538C9.99378 12.5338 9.07734 12.8182 8.0009 12.8182C5.91734 12.8182 4.15378 11.4102 3.52445 9.51953H0.851562V11.5924C1.51738 12.9177 2.53862 14.0317 3.80115 14.81C5.06368 15.5883 6.51776 16.0001 8.0009 15.9995Z" fill="#34A853"/>
<path fill-rule="evenodd" clip-rule="evenodd" d="M3.52356 9.52012C3.35886 9.03021 3.27422 8.51696 3.27289 8.00012C3.27289 7.473 3.36356 6.96012 3.52356 6.48012V4.40723H0.850668C0.290716 5.5221 -0.000604142 6.75252 9.40655e-07 8.00012C9.40655e-07 9.29078 0.309334 10.513 0.850668 11.593L3.52356 9.52012Z" fill="#FBBC05"/>
<path fill-rule="evenodd" clip-rule="evenodd" d="M8.0009 3.18222C9.17512 3.18222 10.2302 3.58578 11.0587 4.37778L13.3538 2.08445C11.968 0.792001 10.1573 6.2852e-07 8.0009 6.2852e-07C6.51776 -0.000587273 5.06368 0.411267 3.80115 1.18954C2.53862 1.96781 1.51738 3.08183 0.851562 4.40711L3.52445 6.48C4.15378 4.58933 5.91734 3.18222 8.0009 3.18222Z" fill="#EA4335"/>
</svg>
