<svg width="19" height="16" viewBox="0 0 19 16" fill="none" xmlns="http://www.w3.org/2000/svg">
<path d="M11.6957 2.388C10.7011 1.794 9.76797 1.5 8.90263 1.5C6.66597 1.5 3.98013 3.466 0.916633 7.5C1.95522 8.868 2.9498 9.997 3.89855 10.894L3.24955 11.602C2.27055 10.672 1.25763 9.517 0.2108 8.138C0.0745568 7.95861 0 7.73296 0 7.5C0 7.26704 0.0745568 7.04139 0.2108 6.862C3.43105 2.621 6.32863 0.5 8.90263 0.5C9.99897 0.5 11.154 0.885 12.3676 1.654L11.6957 2.388ZM6.17738 12.651C7.1463 13.22 8.05563 13.5 8.90263 13.5C11.142 13.5 13.8279 11.531 16.8886 7.5C15.8711 6.16 14.894 5.047 13.9617 4.159L14.6107 3.45C15.7199 4.513 16.873 5.863 18.0693 7.5C14.6584 12.167 11.6031 14.5 8.90263 14.5C7.82555 14.5 6.69255 14.129 5.50272 13.387L6.17738 12.651Z" fill="#808080"/>
<path d="M7.5072 11.2005L8.23137 10.4105C8.69269 10.5373 9.17626 10.5313 9.63485 10.3932C10.0934 10.2552 10.5113 9.98967 10.8477 9.62269C11.1841 9.25572 11.4275 8.79982 11.5541 8.29954C11.6806 7.79927 11.6861 7.27173 11.5699 6.76847L12.294 5.97847C12.5699 6.70884 12.6414 7.51197 12.4994 8.28659C12.3575 9.06121 12.0085 9.77263 11.4964 10.3312C10.9843 10.8897 10.3321 11.2703 9.62202 11.425C8.91192 11.5797 8.17665 11.5016 7.5072 11.2005ZM5.54187 9.10247C5.24622 8.36535 5.16121 7.5481 5.29794 6.75746C5.43467 5.96681 5.7868 5.23953 6.30832 4.6706C6.82984 4.10167 7.49652 3.71753 8.22127 3.56837C8.94603 3.4192 9.69518 3.51194 10.3709 3.83447L9.65587 4.61447C9.18462 4.46836 8.68616 4.46214 8.21198 4.59646C7.73779 4.73078 7.30507 5.00076 6.95851 5.37852C6.61195 5.75628 6.36412 6.22812 6.24061 6.7453C6.1171 7.26249 6.1224 7.80626 6.25595 8.32047L5.54095 9.10047L5.54187 9.10247Z" fill="#808080"/>
<path d="M14.8561 0.353915L1.89245 14.4961C1.71346 14.6913 1.71346 15.0079 1.89245 15.2032C2.07144 15.3984 2.36164 15.3984 2.54063 15.2032L15.5043 1.06102C15.6833 0.865761 15.6833 0.549178 15.5043 0.353916C15.3253 0.158654 15.0351 0.158654 14.8561 0.353915Z" fill="#808080"/>
</svg>
