<svg width="450" height="213" viewBox="0 0 450 213" fill="none" xmlns="http://www.w3.org/2000/svg">
    <path d="M196.638 92.9014H117.94V179.071H196.638V92.9014Z" fill="#F2F7F4" />
    <path
        d="M340.614 53.4037C353.307 53.4037 363.597 43.1142 363.597 30.4212C363.597 17.7282 353.307 7.43848 340.614 7.43848C327.921 7.43848 317.632 17.7282 317.632 30.4212C317.632 43.1142 327.921 53.4037 340.614 53.4037Z"
        fill="#F2F7F4"
    />
    <path
        fill-rule="evenodd"
        clip-rule="evenodd"
        d="M340.561 16.5811C340.561 16.5811 348.309 29.7002 348.309 35.319C348.309 39.6 344.835 43.0783 340.561 43.0783C336.278 43.0783 332.803 39.6 332.803 35.319C332.803 29.7002 340.561 16.5811 340.561 16.5811Z"
        fill="#CDE5E0"
    />
    <mask
        id="mask0_803_28608"
        style="mask-type: alpha"
        maskUnits="userSpaceOnUse"
        x="332"
        y="16"
        width="17"
        height="28"
    >
        <path
            fill-rule="evenodd"
            clip-rule="evenodd"
            d="M340.561 16.5811C340.561 16.5811 348.309 29.7002 348.309 35.319C348.309 39.6 344.835 43.0783 340.561 43.0783C336.278 43.0783 332.803 39.6 332.803 35.319C332.803 29.7002 340.561 16.5811 340.561 16.5811Z"
            fill="url(#paint0_linear_803_28608)"
        />
    </mask>
    <g mask="url(#mask0_803_28608)">
        <path
            fill-rule="evenodd"
            clip-rule="evenodd"
            d="M340.561 16.5811C340.561 16.5811 348.309 29.7002 348.309 35.319C348.309 39.6 344.835 43.0783 340.561 43.0783C336.278 43.0783 332.803 39.6 332.803 35.319C332.803 29.7002 340.561 16.5811 340.561 16.5811Z"
            fill="#5DA097"
        />
    </g>
    <path
        d="M367.447 30.0813L373.437 36.8234L386.414 24.0288"
        stroke="#FFB399"
        stroke-width="4.46097"
        stroke-miterlimit="3"
    />
    <mask
        id="mask1_803_28608"
        style="mask-type: alpha"
        maskUnits="userSpaceOnUse"
        x="0"
        y="180"
        width="450"
        height="26"
    >
        <path d="M450 180.476H0V205.258H450V180.476Z" fill="url(#paint1_radial_803_28608)" />
    </mask>
    <g mask="url(#mask1_803_28608)">
        <path d="M450 180.476H0V205.258H450V180.476Z" fill="#FFE5A3" />
    </g>
    <mask
        id="mask2_803_28608"
        style="mask-type: alpha"
        maskUnits="userSpaceOnUse"
        x="254"
        y="119"
        width="66"
        height="62"
    >
        <path
            fill-rule="evenodd"
            clip-rule="evenodd"
            d="M266.203 180.684H307.644C313.868 172.376 319.488 158.146 319.488 141.508V119.512H254.36V141.508C254.36 158.146 259.97 172.376 266.203 180.684Z"
            fill="url(#paint2_linear_803_28608)"
        />
    </mask>
    <g mask="url(#mask2_803_28608)">
        <path
            fill-rule="evenodd"
            clip-rule="evenodd"
            d="M266.203 180.684H307.644C313.868 172.376 319.488 158.146 319.488 141.508V119.512H254.36V141.508C254.36 158.146 259.97 172.376 266.203 180.684Z"
            fill="#FFE5A3"
        />
    </g>
    <path d="M288.69 33.0933H284.916V119.507H288.69V33.0933Z" fill="#CDE5E0" />
    <mask
        id="mask3_803_28608"
        style="mask-type: alpha"
        maskUnits="userSpaceOnUse"
        x="284"
        y="85"
        width="5"
        height="35"
    >
        <path
            d="M284.856 85.6475H288.682V119.53H284.856V85.6475Z"
            fill="url(#paint3_linear_803_28608)"
        />
    </mask>
    <g mask="url(#mask3_803_28608)">
        <path d="M284.856 85.6475H288.682V119.53H284.856V85.6475Z" fill="#5DA097" />
    </g>
    <path
        fill-rule="evenodd"
        clip-rule="evenodd"
        d="M284.857 119.441C284.857 119.441 285.748 111.313 291.592 102.978C297.435 94.6448 308.112 83.5498 310.608 74.6946C313.104 65.8395 319.126 59.4046 326.257 62.3563C333.388 65.308 331.149 80.1767 321.107 84.5653C321.107 84.5653 322.751 91.1142 317.145 97.2833C308.389 106.909 304.21 102.828 296.94 108.673C290.225 114.069 291.79 119.441 291.79 119.441H284.857Z"
        fill="#CDE5E0"
    />
    <path
        fill-rule="evenodd"
        clip-rule="evenodd"
        d="M264.002 40.4729C264.002 40.4729 259.922 44.4711 258.515 49.9711C257 55.9315 258.415 63.5657 265.723 67.3087C271.786 70.417 278.815 66.4588 282.5 62.3268C285.685 58.7564 285.966 55.1053 285.966 55.1053C285.966 55.1053 291.644 60.7509 301.125 57.0208C310.6 53.2933 315.501 35.3105 301.289 29.5271C301.289 29.5271 304.21 27.9524 306.779 22.2383C309.938 15.2212 306.988 5.67573 300.015 4.40703C286.151 1.88324 279.749 19.8943 279.749 19.8943C279.749 19.8943 268.545 11.9631 261.309 17.598C249.296 26.9439 264.002 40.4729 264.002 40.4729Z"
        fill="#FFC93E"
    />
    <mask
        id="mask4_803_28608"
        style="mask-type: alpha"
        maskUnits="userSpaceOnUse"
        x="270"
        y="25"
        width="24"
        height="26"
    >
        <path
            d="M275.712 49.459C281.034 52.5319 288.237 50.0196 291.801 43.8477C295.364 37.6757 293.938 30.1811 288.616 27.1083C283.294 24.0354 276.09 26.5479 272.527 32.7199C268.964 38.8919 270.39 46.3862 275.712 49.459Z"
            fill="url(#paint4_radial_803_28608)"
        />
    </mask>
    <g mask="url(#mask4_803_28608)">
        <path
            d="M275.712 49.459C281.034 52.5319 288.237 50.0196 291.801 43.8477C295.364 37.6757 293.938 30.1811 288.616 27.1083C283.294 24.0354 276.09 26.5479 272.527 32.7199C268.964 38.8919 270.39 46.3862 275.712 49.459Z"
            fill="#FF9A19"
        />
    </g>
    <path
        fill-rule="evenodd"
        clip-rule="evenodd"
        d="M269.858 52.9592C269.858 52.9592 275.266 37.7322 285.628 40.4697C285.628 40.4697 280.205 33.1276 290.389 22.8994L301.294 29.5348L285.97 55.1089L269.858 52.9592Z"
        fill="#FFC93E"
    />
    <mask
        id="mask5_803_28608"
        style="mask-type: alpha"
        maskUnits="userSpaceOnUse"
        x="284"
        y="109"
        width="13"
        height="11"
    >
        <path
            fill-rule="evenodd"
            clip-rule="evenodd"
            d="M296.504 109.041C290.303 114.31 291.795 119.447 291.795 119.447H284.862C284.862 119.447 285.366 114.857 288.094 109.041H296.504Z"
            fill="url(#paint5_linear_803_28608)"
        />
    </mask>
    <g mask="url(#mask5_803_28608)">
        <path
            fill-rule="evenodd"
            clip-rule="evenodd"
            d="M296.504 109.041C290.303 114.31 291.795 119.447 291.795 119.447H284.862C284.862 119.447 285.366 114.857 288.094 109.041H296.504Z"
            fill="#5DA097"
        />
    </g>
    <path d="M186.304 91.4062H64.6064L74.9316 180.477H196.629L186.304 91.4062Z" fill="#CDE5E0" />
    <mask
        id="mask6_803_28608"
        style="mask-type: alpha"
        maskUnits="userSpaceOnUse"
        x="158"
        y="91"
        width="26"
        height="90"
    >
        <path
            fill-rule="evenodd"
            clip-rule="evenodd"
            d="M180.724 91.4067L183.369 180.477H158.649C172.701 169.333 180.722 149.711 178.542 107.701L178.832 91.4067H180.724Z"
            fill="url(#paint6_linear_803_28608)"
        />
    </mask>
    <g mask="url(#mask6_803_28608)">
        <path
            fill-rule="evenodd"
            clip-rule="evenodd"
            d="M180.724 91.4067L183.369 180.477H158.649C172.701 169.333 180.722 149.711 178.542 107.701L178.832 91.4067H180.724Z"
            fill="#5DA097"
        />
    </g>
    <mask
        id="mask7_803_28608"
        style="mask-type: alpha"
        maskUnits="userSpaceOnUse"
        x="181"
        y="91"
        width="11"
        height="90"
    >
        <path
            fill-rule="evenodd"
            clip-rule="evenodd"
            d="M184.584 91.4067L191.853 180.477H187.986L181.557 91.4067H184.584Z"
            fill="url(#paint7_linear_803_28608)"
        />
    </mask>
    <g mask="url(#mask7_803_28608)">
        <path
            fill-rule="evenodd"
            clip-rule="evenodd"
            d="M184.584 91.4067L191.853 180.477H187.986L181.557 91.4067H184.584Z"
            fill="#5DA097"
        />
    </g>
    <mask
        id="mask8_803_28608"
        style="mask-type: alpha"
        maskUnits="userSpaceOnUse"
        x="147"
        y="91"
        width="31"
        height="90"
    >
        <path
            fill-rule="evenodd"
            clip-rule="evenodd"
            d="M177.582 91.4067C176.768 126.946 175.604 164.418 152.709 180.477H147.16C162.361 169.333 172.406 149.711 174.56 107.701L174.513 91.4067H177.582Z"
            fill="url(#paint8_linear_803_28608)"
        />
    </mask>
    <g mask="url(#mask8_803_28608)">
        <path
            fill-rule="evenodd"
            clip-rule="evenodd"
            d="M177.582 91.4067C176.768 126.946 175.604 164.418 152.709 180.477H147.16C162.361 169.333 172.406 149.711 174.56 107.701L174.513 91.4067H177.582Z"
            fill="#5DA097"
        />
    </g>
    <path
        fill-rule="evenodd"
        clip-rule="evenodd"
        d="M173.624 91.4062L171.735 107.701C166.866 149.711 155.51 169.332 139.631 180.477H30.6203C46.5422 169.332 57.8553 149.711 62.7252 107.701L64.6141 91.4062H173.624Z"
        fill="white"
    />
    <mask
        id="mask9_803_28608"
        style="mask-type: alpha"
        maskUnits="userSpaceOnUse"
        x="30"
        y="91"
        width="144"
        height="90"
    >
        <path
            fill-rule="evenodd"
            clip-rule="evenodd"
            d="M173.624 91.4062L171.735 107.701C166.866 149.711 155.51 169.332 139.631 180.477H30.6203C46.5422 169.332 57.8553 149.711 62.7252 107.701L64.6141 91.4062H173.624Z"
            fill="url(#paint9_linear_803_28608)"
        />
    </mask>
    <g mask="url(#mask9_803_28608)">
        <path
            fill-rule="evenodd"
            clip-rule="evenodd"
            d="M173.624 91.4062L171.735 107.701C166.866 149.711 155.51 169.332 139.631 180.477H30.6203C46.5422 169.332 57.8553 149.711 62.7252 107.701L64.6141 91.4062H173.624Z"
            fill="#FFF6E0"
        />
    </g>
    <path
        fill-rule="evenodd"
        clip-rule="evenodd"
        d="M70.9535 114.75H161.992L162.711 115.521C158.608 150.911 149.015 164.309 135.604 173.695L135.166 173.835H44.1622L43.7104 172.584C48.6412 169.118 53.0403 165.092 56.8403 159.57L56.842 159.251H57.0529C63.2064 150.084 67.7266 136.834 70.2151 115.367L70.9535 114.75ZM57.8746 160.642C54.4657 165.517 50.5938 169.236 46.3248 172.444C46.3248 172.444 50.924 172.444 58.0512 172.444C62.336 169.402 66.2172 165.604 69.6363 160.642H57.8746ZM60.4739 172.444C64.371 172.444 68.9001 172.444 73.7452 172.444C78.03 169.402 81.9112 165.604 85.3302 160.642H71.3917C68.1563 165.534 64.4839 169.35 60.4739 172.444ZM76.1325 172.444C80.4159 172.444 84.9102 172.444 89.4042 172.444C93.689 169.402 97.5699 165.604 100.989 160.642H87.0857C83.8152 165.534 80.1777 169.35 76.1325 172.444ZM91.8265 172.444C96.3206 172.444 100.814 172.444 105.098 172.444C109.383 169.402 113.264 165.604 116.683 160.642H102.744C99.509 165.534 95.8365 169.35 91.8265 172.444ZM107.486 172.444C112.331 172.444 116.86 172.444 120.757 172.444C125.077 169.402 128.923 165.604 132.342 160.642H118.438C115.168 165.534 111.531 169.35 107.486 172.444ZM123.179 172.444C130.306 172.444 134.941 172.444 134.941 172.444C139.455 169.241 143.535 165.547 147.088 160.642H134.097C130.862 165.534 127.189 169.35 123.179 172.444ZM148.056 159.251C150.298 155.969 152.283 152.167 154.036 147.647H140.694C138.989 152.062 137.07 155.895 134.996 159.251H148.056ZM154.338 146.863C156.099 142.273 157.591 136.97 158.838 130.757H145.602C144.365 136.581 142.892 141.713 141.207 146.255H154.338L154.338 146.863ZM159.055 129.79C159.851 125.655 160.552 121.121 161.165 116.138H148.104C147.482 120.898 146.726 125.296 145.903 129.365H159.034L159.055 129.79ZM71.6002 116.138C71.0432 120.942 70.3585 125.335 69.6104 129.365H81.6882C82.51 125.305 83.2654 120.907 83.8885 116.138H71.6002ZM69.3439 130.757C68.131 136.677 66.7303 141.792 65.1246 146.255H76.9565C78.6396 141.731 80.1123 136.598 81.3864 130.757H69.3439ZM64.6122 147.647C62.8624 152.14 60.9468 155.947 58.8084 159.251H70.57C72.712 155.917 74.666 152.084 76.4092 147.647H64.6122ZM146.594 116.138H132.41C131.788 120.898 131.068 125.296 130.21 129.365H144.394C145.215 125.305 145.971 120.907 146.594 116.138ZM130.935 116.138H116.751C116.129 120.898 115.373 125.296 114.551 129.365H128.7C129.557 125.305 130.277 120.907 130.935 116.138ZM115.241 116.138H101.057C100.435 120.898 99.7145 125.296 98.8566 129.365H113.041C113.863 125.305 114.618 120.907 115.241 116.138ZM99.5825 116.138H85.3985C84.7764 120.898 84.0207 125.296 83.1979 129.365H97.3469C98.2038 125.305 98.9243 120.907 99.5825 116.138ZM72.2902 159.251H86.2637C88.4057 155.917 90.36 152.084 92.1032 147.647H77.9891C76.2836 152.062 74.3645 155.895 72.2902 159.251ZM87.9842 159.251H101.923C104.065 155.917 106.019 152.084 107.762 147.647H93.6478C91.9422 152.062 90.0585 155.895 87.9842 159.251ZM103.643 159.251H117.617C119.759 155.917 121.713 152.084 123.456 147.647H109.342C107.636 152.062 105.717 155.895 103.643 159.251ZM119.337 159.251H133.275C135.417 155.917 137.371 152.084 139.115 147.647H125.036C123.33 152.062 121.411 155.895 119.337 159.251ZM139.662 146.255C141.345 141.731 142.818 136.598 144.092 130.757H129.943C128.671 136.581 127.198 141.713 125.548 146.255H139.662ZM82.896 130.757C81.6591 136.581 80.1866 141.713 78.5015 146.255H92.6155C94.3337 141.731 95.8063 136.598 97.0804 130.757H82.896ZM128.433 130.757H114.249C113.012 136.581 111.539 141.713 109.854 146.255H123.968C125.686 141.731 127.159 136.598 128.433 130.757ZM112.739 130.757H98.59C97.318 136.581 95.8455 141.713 94.1955 146.255H108.309C109.992 141.731 111.465 136.598 112.739 130.757Z"
        fill="#CDE5E0"
    />
    <path
        fill-rule="evenodd"
        clip-rule="evenodd"
        d="M171.641 108.476H62.6131C62.6701 108.22 62.6702 107.964 62.7271 107.704L64.6058 91.4092H173.634L171.699 107.704C171.699 107.964 171.641 108.22 171.641 108.476Z"
        fill="#EE6449"
    />
    <path
        fill-rule="evenodd"
        clip-rule="evenodd"
        d="M173.635 91.4092H186.331L188.267 108.476H171.642C171.642 108.22 171.699 107.964 171.699 107.704L173.635 91.4092Z"
        fill="#EE6449"
    />
    <mask
        id="mask10_803_28608"
        style="mask-type: alpha"
        maskUnits="userSpaceOnUse"
        x="171"
        y="91"
        width="18"
        height="18"
    >
        <path
            fill-rule="evenodd"
            clip-rule="evenodd"
            d="M173.635 91.4092H186.331L188.267 108.476H171.642C171.642 108.22 171.699 107.964 171.699 107.704L173.635 91.4092Z"
            fill="url(#paint10_linear_803_28608)"
        />
    </mask>
    <g mask="url(#mask10_803_28608)">
        <path
            fill-rule="evenodd"
            clip-rule="evenodd"
            d="M173.635 91.4092H186.331L188.267 108.476H171.642C171.642 108.22 171.699 107.964 171.699 107.704L173.635 91.4092Z"
            fill="#4E463E"
        />
    </g>
    <path d="M372.741 134.648H295.731L302.048 180.265H379.058L372.741 134.648Z" fill="#CDE5E0" />
    <mask
        id="mask11_803_28608"
        style="mask-type: alpha"
        maskUnits="userSpaceOnUse"
        x="295"
        y="134"
        width="78"
        height="34"
    >
        <path
            fill-rule="evenodd"
            clip-rule="evenodd"
            d="M344.195 165.225C341.114 168.134 336.398 168.414 332.995 165.888C321.205 157.109 295.777 138.195 295.777 138.195L295.459 134.859H372.471L372.79 138.195C372.79 138.195 353.735 156.203 344.195 165.225Z"
            fill="url(#paint11_linear_803_28608)"
        />
    </mask>
    <g mask="url(#mask11_803_28608)">
        <path
            fill-rule="evenodd"
            clip-rule="evenodd"
            d="M344.195 165.225C341.114 168.134 336.398 168.414 332.995 165.888C321.205 157.109 295.777 138.195 295.777 138.195L295.459 134.859H372.471L372.79 138.195C372.79 138.195 353.735 156.203 344.195 165.225Z"
            fill="#5DA097"
        />
    </g>
    <mask
        id="mask12_803_28608"
        style="mask-type: alpha"
        maskUnits="userSpaceOnUse"
        x="295"
        y="134"
        width="85"
        height="47"
    >
        <path
            d="M372.741 134.648H295.731L302.048 180.265H379.058L372.741 134.648Z"
            fill="#CDE5E0"
        />
    </mask>
    <g mask="url(#mask12_803_28608)">
        <mask
            id="mask13_803_28608"
            style="mask-type: alpha"
            maskUnits="userSpaceOnUse"
            x="346"
            y="118"
            width="41"
            height="44"
        >
            <path
                d="M366.758 161.893C377.843 161.893 386.667 152.106 386.466 140.033C386.265 127.96 377.116 118.172 366.03 118.172C354.945 118.172 346.121 127.96 346.322 140.033C346.523 152.106 355.672 161.893 366.758 161.893Z"
                fill="url(#paint12_linear_803_28608)"
            />
        </mask>
        <g mask="url(#mask13_803_28608)">
            <path
                d="M366.758 161.893C377.843 161.893 386.667 152.106 386.466 140.033C386.265 127.96 377.116 118.172 366.03 118.172C354.945 118.172 346.121 127.96 346.322 140.033C346.523 152.106 355.672 161.893 366.758 161.893Z"
                fill="#5DA097"
            />
        </g>
    </g>
    <path
        fill-rule="evenodd"
        clip-rule="evenodd"
        d="M341.496 163.06C339.621 164.761 336.804 164.916 334.764 163.428C324.523 155.989 295.458 134.859 295.458 134.859L372.47 134.859C372.47 134.859 350.004 155.312 341.496 163.06Z"
        fill="#CDE5E0"
    />
    <mask
        id="mask14_803_28608"
        style="mask-type: alpha"
        maskUnits="userSpaceOnUse"
        x="346"
        y="134"
        width="27"
        height="21"
    >
        <path
            fill-rule="evenodd"
            clip-rule="evenodd"
            d="M351.301 154.141C348.276 150.332 346.408 145.405 346.319 140.033C346.289 138.25 346.454 136.515 346.798 134.862H372.476L351.301 154.141Z"
            fill="url(#paint13_linear_803_28608)"
        />
    </mask>
    <g mask="url(#mask14_803_28608)">
        <path
            fill-rule="evenodd"
            clip-rule="evenodd"
            d="M351.301 154.141C348.276 150.332 346.408 145.405 346.319 140.033C346.289 138.25 346.454 136.515 346.798 134.862H372.476L351.301 154.141Z"
            fill="#5DA097"
        />
    </g>
    <path
        fill-rule="evenodd"
        clip-rule="evenodd"
        d="M244.508 49.8306C247.572 49.8306 250.143 52.1356 250.481 55.1796C252.162 70.3031 261.975 158.571 263.788 174.883C263.947 176.304 263.494 177.734 262.535 178.81C261.575 179.878 260.21 180.489 258.77 180.489H196.799C194.228 180.489 192.067 178.553 191.783 175.999C189.698 157.245 181.666 85.0011 178.79 59.1232C178.526 56.7539 179.283 54.3925 180.868 52.6175C182.452 50.8425 184.72 49.8306 187.101 49.8306C202.403 49.8306 232.309 49.8306 244.508 49.8306Z"
        fill="#79A071"
    />
    <mask
        id="mask15_803_28608"
        style="mask-type: alpha"
        maskUnits="userSpaceOnUse"
        x="195"
        y="118"
        width="69"
        height="63"
    >
        <path
            fill-rule="evenodd"
            clip-rule="evenodd"
            d="M195.782 180.373L257.536 118.619L263.794 174.893C263.948 176.312 263.495 177.741 262.527 178.803C261.575 179.881 260.212 180.489 258.767 180.486L196.805 180.482C196.455 180.486 196.105 180.459 195.782 180.373Z"
            fill="url(#paint14_linear_803_28608)"
        />
    </mask>
    <g mask="url(#mask15_803_28608)">
        <path
            fill-rule="evenodd"
            clip-rule="evenodd"
            d="M195.782 180.373L257.536 118.619L263.794 174.893C263.948 176.312 263.495 177.741 262.527 178.803C261.575 179.881 260.212 180.489 258.767 180.486L196.805 180.482C196.455 180.486 196.105 180.459 195.782 180.373Z"
            fill="#51734C"
        />
    </g>
    <mask
        id="mask16_803_28608"
        style="mask-type: alpha"
        maskUnits="userSpaceOnUse"
        x="184"
        y="49"
        width="69"
        height="88"
    >
        <path
            fill-rule="evenodd"
            clip-rule="evenodd"
            d="M244.15 49.8136L244.512 49.8218C247.572 49.8223 250.142 52.1271 250.48 55.1725L252.295 71.4914L187.379 136.407L184.398 109.566L244.15 49.8136Z"
            fill="url(#paint15_linear_803_28608)"
        />
    </mask>
    <g mask="url(#mask16_803_28608)">
        <path
            fill-rule="evenodd"
            clip-rule="evenodd"
            d="M244.15 49.8136L244.512 49.8218C247.572 49.8223 250.142 52.1271 250.48 55.1725L252.295 71.4914L187.379 136.407L184.398 109.566L244.15 49.8136Z"
            fill="#51734C"
        />
    </g>
    <path
        fill-rule="evenodd"
        clip-rule="evenodd"
        d="M244.886 60.4509L257.101 170.335C257.359 172.654 255.689 174.53 253.374 174.53H208.517C206.201 174.53 204.114 172.654 203.856 170.335L191.64 60.4509C191.383 58.1316 193.053 56.2559 195.368 56.2559H240.225C242.541 56.2559 244.628 58.1316 244.886 60.4509Z"
        fill="#F1F4E1"
    />
    <path
        fill-rule="evenodd"
        clip-rule="evenodd"
        d="M246.985 79.3711L252.215 126.459L203.804 169.927L198.565 122.848L246.985 79.3711Z"
        fill="url(#paint16_linear_803_28608)"
    />
    <path
        fill-rule="evenodd"
        clip-rule="evenodd"
        d="M194.33 84.7648L191.626 60.458C191.371 58.1369 193.045 56.2574 195.361 56.2575L226.081 56.2557L194.33 84.7648Z"
        fill="url(#paint17_linear_803_28608)"
    />
    <mask
        id="mask17_803_28608"
        style="mask-type: alpha"
        maskUnits="userSpaceOnUse"
        x="210"
        y="138"
        width="38"
        height="8"
    >
        <path
            fill-rule="evenodd"
            clip-rule="evenodd"
            d="M247.859 142.28C248.063 144.117 246.738 145.608 244.904 145.608H214.57C212.732 145.608 211.076 144.117 210.872 142.28C210.668 140.443 211.992 138.952 213.83 138.952H244.164C245.998 138.952 247.654 140.443 247.859 142.28Z"
            fill="url(#paint18_linear_803_28608)"
        />
    </mask>
    <g mask="url(#mask17_803_28608)">
        <path
            fill-rule="evenodd"
            clip-rule="evenodd"
            d="M247.859 142.28C248.063 144.117 246.738 145.608 244.904 145.608H214.57C212.732 145.608 211.076 144.117 210.872 142.28C210.668 140.443 211.992 138.952 213.83 138.952H244.164C245.998 138.952 247.654 140.443 247.859 142.28Z"
            fill="#C5D8AC"
        />
    </g>
    <path
        d="M210.802 126.91C209.668 126.91 208.713 126.058 208.584 124.931C207.934 119.22 206.054 102.716 205.337 96.416C205.265 95.7839 205.465 95.1518 205.889 94.6766C206.313 94.203 206.919 93.9316 207.554 93.9316C214.036 93.9316 231.282 93.9316 237.157 93.9316C238.291 93.9316 239.245 94.7833 239.373 95.9109C240.024 101.623 241.903 118.127 242.621 124.426C242.693 125.058 242.492 125.69 242.068 126.165C241.645 126.639 241.04 126.91 240.403 126.91C233.923 126.91 216.676 126.91 210.802 126.91Z"
        fill="#EE6449"
    />
    <mask
        id="mask18_803_28608"
        style="mask-type: alpha"
        maskUnits="userSpaceOnUse"
        x="205"
        y="93"
        width="35"
        height="25"
    >
        <path
            fill-rule="evenodd"
            clip-rule="evenodd"
            d="M207.592 116.217L205.337 96.416C205.265 95.7839 205.467 95.1518 205.89 94.6766C206.314 94.203 206.92 93.9316 207.555 93.9316H237.158C238.291 93.9316 239.246 94.7833 239.374 95.9109L239.97 101.141C232.168 104.332 227.355 110.618 221.659 114.868C217.536 117.945 212.368 117.683 207.592 116.217Z"
            fill="url(#paint19_linear_803_28608)"
        />
    </mask>
    <g mask="url(#mask18_803_28608)">
        <path
            fill-rule="evenodd"
            clip-rule="evenodd"
            d="M207.592 116.217L205.337 96.416C205.265 95.7839 205.467 95.1518 205.89 94.6766C206.314 94.203 206.92 93.9316 207.555 93.9316H237.158C238.291 93.9316 239.246 94.7833 239.374 95.9109L239.97 101.141C232.168 104.332 227.355 110.618 221.659 114.868C217.536 117.945 212.368 117.683 207.592 116.217Z"
            fill="#FFB399"
        />
    </g>
    <path
        d="M205.792 100.705L206.131 103.676L206.199 103.713C207.852 104.587 211.766 106.657 212.724 107.149C213.01 107.296 213.283 107.367 213.545 107.367C213.811 107.367 214.067 107.293 214.316 107.146C214.607 106.971 227.985 99.0299 228.136 98.9396C228.432 98.7635 228.386 98.2216 228.011 98.0275L227.745 97.8905C227.362 97.6918 226.867 97.4344 226.656 97.323C226.508 97.2448 226.304 97.1846 226.085 97.1861C225.898 97.1846 225.702 97.2282 225.521 97.3366C225.356 97.4344 214.312 103.985 213.942 104.202C213.725 104.328 213.474 104.394 213.216 104.396H213.177C212.921 104.393 212.659 104.328 212.417 104.2C212.023 103.992 205.792 100.705 205.792 100.705Z"
        fill="white"
    />
    <path
        d="M207.214 113.231L207.552 116.202L207.62 116.237C209.268 117.067 213.17 119.031 214.125 119.498C214.41 119.638 214.683 119.701 214.943 119.693C215.209 119.686 215.464 119.603 215.711 119.448C216.002 119.266 229.334 110.915 229.484 110.82C229.779 110.635 229.733 110.094 229.36 109.91L229.093 109.779C228.713 109.592 228.219 109.348 228.009 109.242C227.861 109.166 227.657 109.113 227.439 109.121C227.252 109.125 227.057 109.174 226.876 109.287C226.713 109.389 215.707 116.277 215.338 116.505C215.122 116.639 214.872 116.711 214.615 116.722L214.575 116.723C214.32 116.727 214.06 116.67 213.818 116.548C213.425 116.351 207.214 113.231 207.214 113.231Z"
        fill="white"
    />
    <path
        d="M206.469 106.643L206.807 109.614L206.876 109.651C208.53 110.525 212.443 112.595 213.4 113.087C213.688 113.234 213.96 113.305 214.223 113.305C214.488 113.305 214.745 113.231 214.992 113.084C215.284 112.909 228.662 104.968 228.813 104.878C229.109 104.7 229.064 104.16 228.688 103.965L228.421 103.827C228.039 103.63 227.543 103.372 227.333 103.261C227.186 103.183 226.98 103.123 226.761 103.124C226.576 103.123 226.38 103.166 226.197 103.273C226.033 103.372 214.989 109.921 214.619 110.138C214.402 110.266 214.151 110.332 213.893 110.334H213.853C213.599 110.331 213.336 110.266 213.094 110.138C212.699 109.93 206.469 106.643 206.469 106.643Z"
        fill="white"
    />
    <path
        fill-rule="evenodd"
        clip-rule="evenodd"
        d="M202.618 49.8232V56.2561H207.67C209.152 56.2561 210.566 56.8624 211.577 57.9514C212.306 58.726 213.227 59.714 214.215 60.7693C215.933 62.5993 218.346 63.5872 220.861 63.4974C223.365 63.3963 225.711 62.2289 227.272 60.2754C227.867 59.5344 228.417 58.8496 228.9 58.2545C229.91 56.9859 231.448 56.2561 233.076 56.2561C235.209 56.2561 237.892 56.2561 237.892 56.2561V49.8232H202.618Z"
        fill="#79A071"
    />
    <path
        d="M220.278 57.6391C221.361 57.6391 222.182 56.6559 222.111 55.4431C222.04 54.2302 221.105 53.2471 220.021 53.2471C218.938 53.2471 218.117 54.2302 218.188 55.4431C218.259 56.6559 219.194 57.6391 220.278 57.6391Z"
        fill="#4E463E"
    />
    <path
        fill-rule="evenodd"
        clip-rule="evenodd"
        d="M192.315 49.8306C190.606 49.8306 188.977 50.5614 187.836 51.8304C186.697 53.1075 186.152 54.8022 186.341 56.5049C188.914 79.644 197.413 156.097 199.605 175.814C199.901 178.481 202.15 180.489 204.827 180.489H212.193C212.193 180.489 202.678 180.489 196.802 180.489C194.228 180.489 192.065 178.553 191.781 175.999C189.617 156.53 181.046 79.435 178.483 56.3763C178.297 54.7057 178.831 53.0432 179.948 51.7902C181.067 50.5453 182.664 49.8306 184.341 49.8306C197.003 49.8306 223.499 49.8306 223.499 49.8306C223.499 49.8306 203.203 49.8306 192.315 49.8306Z"
        fill="#51734C"
    />
    <mask
        id="mask19_803_28608"
        style="mask-type: alpha"
        maskUnits="userSpaceOnUse"
        x="178"
        y="49"
        width="15"
        height="12"
    >
        <path
            fill-rule="evenodd"
            clip-rule="evenodd"
            d="M178.893 60.0394L178.484 56.3647C178.298 54.6985 178.834 53.0325 179.949 51.7828C181.065 50.5331 182.665 49.8188 184.338 49.8188H192.32C190.609 49.8188 188.98 50.5478 187.834 51.8198C186.696 53.0918 186.153 54.7951 186.339 56.4911L186.733 60.0394H178.893Z"
            fill="url(#paint20_linear_803_28608)"
        />
    </mask>
    <g mask="url(#mask19_803_28608)">
        <path
            fill-rule="evenodd"
            clip-rule="evenodd"
            d="M178.893 60.0394L178.484 56.3647C178.298 54.6985 178.834 53.0325 179.949 51.7828C181.065 50.5331 182.665 49.8188 184.338 49.8188H192.32C190.609 49.8188 188.98 50.5478 187.834 51.8198C186.696 53.0918 186.153 54.7951 186.339 56.4911L186.733 60.0394H178.893Z"
            fill="#41513E"
        />
    </g>
    <mask
        id="mask20_803_28608"
        style="mask-type: alpha"
        maskUnits="userSpaceOnUse"
        x="191"
        y="171"
        width="14"
        height="10"
    >
        <path
            fill-rule="evenodd"
            clip-rule="evenodd"
            d="M204.824 180.481H196.805C194.231 180.481 192.067 178.54 191.784 175.981L191.286 171.518H199.126L199.609 175.802C199.9 178.465 202.154 180.481 204.824 180.481Z"
            fill="url(#paint21_linear_803_28608)"
        />
    </mask>
    <g mask="url(#mask20_803_28608)">
        <path
            fill-rule="evenodd"
            clip-rule="evenodd"
            d="M204.824 180.481H196.805C194.231 180.481 192.067 178.54 191.784 175.981L191.286 171.518H199.126L199.609 175.802C199.9 178.465 202.154 180.481 204.824 180.481Z"
            fill="#41513E"
        />
    </g>
    <mask
        id="mask21_803_28608"
        style="mask-type: alpha"
        maskUnits="userSpaceOnUse"
        x="183"
        y="103"
        width="12"
        height="27"
    >
        <path
            fill-rule="evenodd"
            clip-rule="evenodd"
            d="M186.597 129.372L183.711 103.359H191.551L194.445 129.372H186.597Z"
            fill="url(#paint22_linear_803_28608)"
        />
    </mask>
    <g mask="url(#mask21_803_28608)">
        <path
            fill-rule="evenodd"
            clip-rule="evenodd"
            d="M186.597 129.372L183.711 103.359H191.551L194.445 129.372H186.597Z"
            fill="#41513E"
        />
    </g>
    <path
        d="M375.107 148.873C384.665 148.873 392.414 141.338 392.414 132.043C392.414 122.748 384.665 115.213 375.107 115.213C365.549 115.213 357.801 122.748 357.801 132.043C357.801 141.338 365.549 148.873 375.107 148.873Z"
        fill="#F2F7F4"
    />
    <path
        d="M368.106 127.702L376.048 136.395L395.627 117.591"
        stroke="#EE6449"
        stroke-width="4.46445"
        stroke-miterlimit="3"
    />
    <path
        d="M56.4016 157.336C65.3477 157.336 72.6 150.084 72.6 141.138C72.6 132.192 65.3477 124.939 56.4016 124.939C47.4556 124.939 40.2034 132.192 40.2034 141.138C40.2034 150.084 47.4556 157.336 56.4016 157.336Z"
        fill="#FFC93E"
    />
    <path
        d="M56.4009 152.2C62.5116 152.2 67.4653 147.246 67.4653 141.136C67.4653 135.025 62.5116 130.071 56.4009 130.071C50.2903 130.071 45.3367 135.025 45.3367 141.136C45.3367 147.246 50.2903 152.2 56.4009 152.2Z"
        stroke="#FFF6E0"
        stroke-width="2.47322"
        stroke-miterlimit="2"
    />
    <path
        d="M56.4001 145.47C58.7944 145.47 60.7354 143.529 60.7354 141.135C60.7354 138.741 58.7944 136.8 56.4001 136.8C54.0059 136.8 52.0649 138.741 52.0649 141.135C52.0649 143.529 54.0059 145.47 56.4001 145.47Z"
        stroke="#FFF6E0"
        stroke-width="2.47327"
        stroke-miterlimit="2"
    />
    <path
        d="M82.0129 137.843L89.5367 146.312L105.838 130.241"
        stroke="#FFB399"
        stroke-width="4.46459"
        stroke-miterlimit="3"
    />
    <defs>
        <linearGradient
            id="paint0_linear_803_28608"
            x1="353.856"
            y1="7.44944"
            x2="353.856"
            y2="36.607"
            gradientUnits="userSpaceOnUse"
        >
            <stop />
            <stop offset="1" stop-opacity="0" />
        </linearGradient>
        <radialGradient
            id="paint1_radial_803_28608"
            cx="0"
            cy="0"
            r="1"
            gradientUnits="userSpaceOnUse"
            gradientTransform="translate(225.005 180.476) rotate(90) scale(24.7814 225)"
        >
            <stop />
            <stop offset="0.55" stop-opacity="0.290196" />
            <stop offset="1" stop-opacity="0" />
        </radialGradient>
        <linearGradient
            id="paint2_linear_803_28608"
            x1="275.539"
            y1="119.512"
            x2="275.539"
            y2="180.689"
            gradientUnits="userSpaceOnUse"
        >
            <stop />
            <stop offset="1" stop-opacity="0" />
        </linearGradient>
        <linearGradient
            id="paint3_linear_803_28608"
            x1="286.82"
            y1="120.844"
            x2="286.82"
            y2="85.647"
            gradientUnits="userSpaceOnUse"
        >
            <stop />
            <stop offset="1" stop-opacity="0" />
        </linearGradient>
        <radialGradient
            id="paint4_radial_803_28608"
            cx="0"
            cy="0"
            r="1"
            gradientTransform="matrix(9.63662 5.5637 -6.45193 11.175 282.164 38.2837)"
            gradientUnits="userSpaceOnUse"
        >
            <stop />
            <stop offset="1" stop-opacity="0" />
        </radialGradient>
        <linearGradient
            id="paint5_linear_803_28608"
            x1="292.136"
            y1="149.081"
            x2="292.136"
            y2="102.221"
            gradientUnits="userSpaceOnUse"
        >
            <stop />
            <stop offset="1" stop-opacity="0" />
        </linearGradient>
        <linearGradient
            id="paint6_linear_803_28608"
            x1="254.239"
            y1="24.6872"
            x2="162.938"
            y2="209.735"
            gradientUnits="userSpaceOnUse"
        >
            <stop />
            <stop offset="1" stop-opacity="0" />
        </linearGradient>
        <linearGradient
            id="paint7_linear_803_28608"
            x1="254.231"
            y1="24.6872"
            x2="162.93"
            y2="209.735"
            gradientUnits="userSpaceOnUse"
        >
            <stop />
            <stop offset="1" stop-opacity="0" />
        </linearGradient>
        <linearGradient
            id="paint8_linear_803_28608"
            x1="254.237"
            y1="24.6872"
            x2="162.936"
            y2="209.735"
            gradientUnits="userSpaceOnUse"
        >
            <stop />
            <stop offset="1" stop-opacity="0" />
        </linearGradient>
        <linearGradient
            id="paint9_linear_803_28608"
            x1="10.7353"
            y1="180.477"
            x2="94.9238"
            y2="135.942"
            gradientUnits="userSpaceOnUse"
        >
            <stop />
            <stop offset="1" stop-opacity="0" />
        </linearGradient>
        <linearGradient
            id="paint10_linear_803_28608"
            x1="131.275"
            y1="103.714"
            x2="202.403"
            y2="103.714"
            gradientUnits="userSpaceOnUse"
        >
            <stop />
            <stop offset="1" stop-opacity="0" />
        </linearGradient>
        <linearGradient
            id="paint11_linear_803_28608"
            x1="351.732"
            y1="299.718"
            x2="324.85"
            y2="105.586"
            gradientUnits="userSpaceOnUse"
        >
            <stop />
            <stop offset="1" stop-opacity="0" />
        </linearGradient>
        <linearGradient
            id="paint12_linear_803_28608"
            x1="287.398"
            y1="236.799"
            x2="370.893"
            y2="125.296"
            gradientUnits="userSpaceOnUse"
        >
            <stop />
            <stop offset="1" stop-opacity="0" />
        </linearGradient>
        <linearGradient
            id="paint13_linear_803_28608"
            x1="287.398"
            y1="236.799"
            x2="370.894"
            y2="125.296"
            gradientUnits="userSpaceOnUse"
        >
            <stop />
            <stop offset="1" stop-opacity="0" />
        </linearGradient>
        <linearGradient
            id="paint14_linear_803_28608"
            x1="212.785"
            y1="118.264"
            x2="273.829"
            y2="174.544"
            gradientUnits="userSpaceOnUse"
        >
            <stop />
            <stop offset="1" stop-opacity="0" />
        </linearGradient>
        <linearGradient
            id="paint15_linear_803_28608"
            x1="247.545"
            y1="95.1609"
            x2="224.284"
            y2="62.6256"
            gradientUnits="userSpaceOnUse"
        >
            <stop />
            <stop offset="1" stop-opacity="0" />
        </linearGradient>
        <linearGradient
            id="paint16_linear_803_28608"
            x1="271.129"
            y1="47.5858"
            x2="221.282"
            y2="260.997"
            gradientUnits="userSpaceOnUse"
        >
            <stop stop-color="white" />
            <stop offset="1" stop-color="white" stop-opacity="0" />
        </linearGradient>
        <linearGradient
            id="paint17_linear_803_28608"
            x1="209.887"
            y1="83.0166"
            x2="179.153"
            y2="49.1389"
            gradientUnits="userSpaceOnUse"
        >
            <stop stop-color="white" />
            <stop offset="1" stop-color="white" stop-opacity="0" />
        </linearGradient>
        <linearGradient
            id="paint18_linear_803_28608"
            x1="216.602"
            y1="131.038"
            x2="245.7"
            y2="161.253"
            gradientUnits="userSpaceOnUse"
        >
            <stop />
            <stop offset="1" stop-opacity="0" />
        </linearGradient>
        <linearGradient
            id="paint19_linear_803_28608"
            x1="228.879"
            y1="178.147"
            x2="203.253"
            y2="86.2113"
            gradientUnits="userSpaceOnUse"
        >
            <stop />
            <stop offset="1" stop-opacity="0" />
        </linearGradient>
        <linearGradient
            id="paint20_linear_803_28608"
            x1="187.351"
            y1="70.1186"
            x2="187.351"
            y2="33.9912"
            gradientUnits="userSpaceOnUse"
        >
            <stop />
            <stop offset="1" stop-opacity="0" />
        </linearGradient>
        <linearGradient
            id="paint21_linear_803_28608"
            x1="207.881"
            y1="158.128"
            x2="207.881"
            y2="185.989"
            gradientUnits="userSpaceOnUse"
        >
            <stop />
            <stop offset="1" stop-opacity="0" />
        </linearGradient>
        <linearGradient
            id="paint22_linear_803_28608"
            x1="217.379"
            y1="110.482"
            x2="160.395"
            y2="128.518"
            gradientUnits="userSpaceOnUse"
        >
            <stop />
            <stop offset="1" stop-opacity="0" />
        </linearGradient>
    </defs>
</svg>
