<svg xmlns="http://www.w3.org/2000/svg" width="12" height="12" fill="none" viewBox="0 0 12 12"
     aria-hidden="true" class="OtRn0U7" data-icon-name="upgrade-icon" data-testid="upgrade-icon">
    <path fill="#FFBA0A"
          d="M4.684.65a1.657 1.657 0 0 1 2.632 0c.361.473.947.715 1.536.637a1.657 1.657 0 0 1 1.861 1.861 1.66 1.66 0 0 0 .636 1.536c.868.663.868 1.97 0 2.632-.472.361-.714.947-.636 1.536a1.657 1.657 0 0 1-1.861 1.861 1.66 1.66 0 0 0-1.536.636 1.657 1.657 0 0 1-2.632 0 1.66 1.66 0 0 0-1.536-.636 1.657 1.657 0 0 1-1.861-1.861A1.66 1.66 0 0 0 .65 7.316a1.657 1.657 0 0 1 0-2.632c.472-.361.714-.947.636-1.536a1.657 1.657 0 0 1 1.861-1.861A1.66 1.66 0 0 0 4.684.65"/>
    <g filter="url(#upgrade-icon-12_svg__a)">
        <path fill="#fff"
              d="M4.806 2.969c-.021-.406.527-.553.713-.191l.692 1.354c.101.2.353.267.54.145l1.277-.827c.341-.22.743.18.522.522l-.827 1.276a.377.377 0 0 0 .145.542l1.354.692c.363.185.216.733-.19.712l-1.52-.078a.377.377 0 0 0-.396.397l.078 1.518c.021.407-.527.554-.713.191L5.79 7.868a.377.377 0 0 0-.54-.145l-1.277.827c-.342.221-.743-.18-.522-.522l.827-1.276a.377.377 0 0 0-.145-.541l-1.354-.692c-.363-.185-.216-.734.19-.713l1.52.078a.377.377 0 0 0 .396-.396z"/>
    </g>
    <defs>
        <filter id="upgrade-icon-12_svg__a" width="10.286" height="10.286" x="0.857" y="0.857"
                color-interpolation-filters="sRGB" filterUnits="userSpaceOnUse">
            <feFlood flood-opacity="0" result="BackgroundImageFix"/>
            <feColorMatrix in="SourceAlpha" result="hardAlpha"
                           values="0 0 0 0 0 0 0 0 0 0 0 0 0 0 0 0 0 0 127 0"/>
            <feOffset/>
            <feGaussianBlur stdDeviation="0.857"/>
            <feComposite in2="hardAlpha" operator="out"/>
            <feColorMatrix values="0 0 0 0 0.780392 0 0 0 0 0.482353 0 0 0 0 0 0 0 0 0.3 0"/>
            <feBlend in2="BackgroundImageFix" result="effect1_dropShadow_19342_1167"/>
            <feBlend in="SourceGraphic" in2="effect1_dropShadow_19342_1167" result="shape"/>
        </filter>
    </defs>
</svg>