<svg width="127" height="32" viewBox="0 0 127 32" fill="none" xmlns="http://www.w3.org/2000/svg">
<mask id="mask0_10001_717" style="mask-type:luminance" maskUnits="userSpaceOnUse" x="0" y="0" width="127" height="32">
<path d="M0 0H127V32H0V0Z" fill="white"/>
</mask>
<g mask="url(#mask0_10001_717)">
<path fill-rule="evenodd" clip-rule="evenodd" d="M3.91973 0H27.8667C30.0617 0 31.8567 1.8 31.8567 4V28C31.8567 30.2 30.0617 32 27.8667 32H3.91873C1.72373 32 -0.0712656 30.2 -0.0712656 28V22.626L-0.0152656 22.659C1.77131 23.7049 3.56132 24.7449 5.35473 25.779C5.83173 26.049 6.28873 26.043 6.74873 25.777L12.9727 22.187L13.0887 22.12L13.0917 22.118L13.1097 22.108L13.1747 22.07C15.3401 20.8215 17.5055 19.5728 19.6707 18.324C19.9467 18.164 19.9607 17.673 19.6507 17.495L19.4337 17.372L19.4327 17.371C19.1167 17.191 18.7087 16.958 18.5347 16.855C18.3818 16.7715 18.2099 16.7287 18.0357 16.7309C17.8614 16.733 17.6906 16.7798 17.5397 16.867C17.3847 16.957 7.06073 22.906 6.71573 23.102C6.51241 23.2186 6.28211 23.2799 6.04773 23.2799C5.81336 23.2799 5.58306 23.2186 5.37973 23.102L-0.0722656 19.927V17.234L-0.0152656 17.267C1.34673 18.062 4.56573 19.941 5.35473 20.387C5.83173 20.657 6.28873 20.651 6.74873 20.385L13.1017 16.721L13.1257 16.707L13.1297 16.705C16.3177 14.865 19.5297 13.014 19.6697 12.932C19.9467 12.772 19.9607 12.281 19.6507 12.104L19.4337 11.98C19.1187 11.8 18.7087 11.566 18.5337 11.463C18.3809 11.3797 18.2092 11.337 18.0352 11.3391C17.8611 11.3412 17.6905 11.388 17.5397 11.475C17.3847 11.565 7.06073 17.514 6.71573 17.71C6.51241 17.8266 6.28211 17.8879 6.04773 17.8879C5.81336 17.8879 5.58306 17.8266 5.37973 17.71L-0.0722656 14.535V11.842L-0.0162656 11.875C1.34473 12.67 4.56573 14.549 5.35373 14.995C5.83173 15.265 6.28873 15.259 6.74873 14.993L13.1087 11.325L13.1167 11.32H13.1187L13.1987 11.273L19.6697 7.54C19.9457 7.38 19.9597 6.89 19.6497 6.712L19.4327 6.588C19.1167 6.408 18.7077 6.174 18.5327 6.072C18.3799 5.98868 18.2082 5.94603 18.0342 5.94813C17.8601 5.95023 17.6895 5.99702 17.5387 6.084C17.3837 6.173 7.05973 12.122 6.71473 12.319C6.51141 12.4356 6.28111 12.4969 6.04673 12.4969C5.81236 12.4969 5.58206 12.4356 5.37873 12.319L-0.0722656 9.143V4C-0.0722656 1.8 1.72373 0 3.91873 0H3.91973Z" fill="#E44232"/>
<path d="M6.74873 14.9935L13.1087 11.3255L13.1167 11.3205C16.3087 9.48047 19.5287 7.62247 19.6697 7.54047C19.9467 7.38047 19.9597 6.89047 19.6507 6.71247L19.4337 6.58847C19.1177 6.40847 18.7087 6.17447 18.5337 6.07247C18.3808 5.98897 18.2089 5.94621 18.0347 5.94832C17.8604 5.95042 17.6896 5.9973 17.5387 6.08447C17.3847 6.17347 7.06073 12.1225 6.71573 12.3195C6.51241 12.436 6.28211 12.4974 6.04773 12.4974C5.81336 12.4974 5.58306 12.436 5.37973 12.3195L-0.0722656 9.14347V11.8415L-0.0162656 11.8745C1.34473 12.6695 4.56573 14.5485 5.35373 14.9945C5.83173 15.2645 6.28873 15.2585 6.74873 14.9925V14.9935Z" fill="white"/>
<path d="M6.74873 20.3851L13.1007 16.7211L13.1247 16.7071L19.6697 12.9321C19.9467 12.7721 19.9597 12.2811 19.6507 12.1041L19.4337 11.9801C19.1177 11.8001 18.7087 11.5661 18.5337 11.4631C18.3808 11.3796 18.2089 11.3368 18.0347 11.3389C17.8604 11.341 17.6896 11.3879 17.5387 11.4751C17.3847 11.5651 7.06073 17.5141 6.71573 17.7101C6.51241 17.8267 6.28211 17.888 6.04773 17.888C5.81336 17.888 5.58306 17.8267 5.37973 17.7101L-0.0722656 14.5351V17.2341L-0.0152656 17.2671C1.34673 18.0621 4.56573 19.9411 5.35473 20.3871C5.83173 20.6571 6.28873 20.6511 6.74873 20.3851Z" fill="white"/>
<path d="M13.1097 22.1084L6.74873 25.7774C6.28873 26.0424 5.83173 26.0494 5.35473 25.7794C3.56132 24.7453 1.77131 23.7053 -0.0152656 22.6594L-0.0722656 22.6264V19.9274L5.37973 23.1024C5.79173 23.3414 6.30273 23.3374 6.71573 23.1024C7.06073 22.9064 17.3847 16.9564 17.5387 16.8674C17.9107 16.6534 18.3117 16.7254 18.5337 16.8554C18.7087 16.9584 19.1177 17.1914 19.4337 17.3724L19.6507 17.4954C19.9607 17.6734 19.9467 18.1644 19.6707 18.3244L13.1097 22.1084Z" fill="white"/>
<path fill-rule="evenodd" clip-rule="evenodd" d="M55.5279 19.0822C55.5279 19.5972 55.6159 20.0972 55.7909 20.5742C55.9659 21.0552 56.2219 21.4782 56.5639 21.8472C56.9039 22.2162 57.3139 22.5112 57.7919 22.7312C58.2699 22.9512 58.8129 23.0622 59.4189 23.0622C60.0259 23.0622 60.5689 22.9522 61.0469 22.7322C61.5108 22.5214 61.9282 22.2206 62.2749 21.8472C62.6143 21.4784 62.8768 21.0457 63.0469 20.5742C63.2199 20.0972 63.3069 19.5972 63.3069 19.0822C63.3069 18.5672 63.2199 18.0672 63.0469 17.5882C62.8763 17.1176 62.6139 16.6856 62.2749 16.3172C61.9281 15.944 61.5107 15.6432 61.0469 15.4322C60.535 15.2041 59.9794 15.0904 59.4189 15.0992C58.8129 15.0992 58.2689 15.2122 57.7919 15.4322C57.3277 15.643 56.91 15.9438 56.5629 16.3172C56.2232 16.6847 55.9607 17.1165 55.7909 17.5872C55.6159 18.0672 55.5279 18.5672 55.5279 19.0822ZM52.2189 19.0822C52.2189 18.0312 52.4079 17.0772 52.7849 16.2202C53.1413 15.3915 53.6621 14.6438 54.3159 14.0222C54.9765 13.4035 55.7545 12.9237 56.6039 12.6112C57.5046 12.2769 58.4583 12.1082 59.4189 12.1132C60.4109 12.1132 61.3499 12.2802 62.2319 12.6112C63.0816 12.9239 63.8602 13.4033 64.5219 14.0212C65.1753 14.6435 65.6961 15.3915 66.0529 16.2202C66.4299 17.0772 66.6189 18.0302 66.6189 19.0822C66.6189 20.1322 66.4299 21.0872 66.0529 21.9442C65.6963 22.7725 65.1759 23.5202 64.5229 24.1422C63.8618 24.7607 63.083 25.2399 62.2329 25.5512C61.333 25.8866 60.3794 26.055 59.4189 26.0482C58.4249 26.0482 57.4889 25.8842 56.6039 25.5512C55.7542 25.2404 54.9759 24.7612 54.3159 24.1422C53.6625 23.5207 53.1419 22.7729 52.7859 21.9442C52.4079 21.0872 52.2189 20.1332 52.2189 19.0822ZM71.4719 19.0852C71.4719 19.6012 71.5589 20.1002 71.7349 20.5772C71.9099 21.0592 72.1649 21.4822 72.5069 21.8512C72.8469 22.2202 73.2569 22.5142 73.7349 22.7352C74.2129 22.9552 74.7559 23.0652 75.3619 23.0652C75.9689 23.0652 76.5119 22.9552 76.9899 22.7352C77.4512 22.5283 77.866 22.2306 78.2096 21.8598C78.5532 21.489 78.8186 21.0528 78.9899 20.5772C79.1629 20.1002 79.2499 19.6012 79.2499 19.0862C79.2499 18.5702 79.1629 18.0712 78.9899 17.5912C78.8177 17.1165 78.5519 16.6812 78.2084 16.311C77.8648 15.9409 77.4505 15.6434 76.9899 15.4362C76.4783 15.2082 75.923 15.0945 75.3629 15.1032C74.8025 15.0944 74.2469 15.2081 73.7349 15.4362C73.2712 15.6468 72.8538 15.9472 72.5069 16.3202C72.1659 16.6902 71.9099 17.1122 71.7339 17.5912C71.5589 18.0712 71.4719 18.5712 71.4719 19.0852ZM79.3069 23.7292H79.2509C78.7719 24.5422 78.1309 25.1312 77.3209 25.5002C76.4976 25.8709 75.6038 26.0592 74.7009 26.0522C73.6699 26.0522 72.7559 25.8742 71.9539 25.5142C71.174 25.1687 70.4746 24.6647 69.8999 24.0342C69.3207 23.3931 68.8792 22.6399 68.6029 21.8212C68.3036 20.9404 68.1548 20.0155 68.1629 19.0852C68.1629 18.1092 68.3169 17.1952 68.6319 16.3472C68.924 15.5336 69.3683 14.7829 69.9409 14.1352C70.5062 13.5067 71.1967 13.0033 71.9679 12.6572C72.7832 12.2924 73.6678 12.1082 74.5609 12.1172C75.1869 12.1172 75.7389 12.1822 76.2179 12.3102C76.6959 12.4402 77.1179 12.6052 77.4859 12.8102C78.0993 13.1335 78.6356 13.5854 79.0579 14.1352H79.1409V6.82524C79.1409 6.49324 79.4029 6.10324 79.8629 6.10324H81.7329C82.1649 6.10324 82.4529 6.46724 82.4529 6.82424V24.9982C82.4529 25.4592 82.0619 25.7212 81.7329 25.7212H80.0299C79.839 25.7192 79.6565 25.6425 79.5213 25.5075C79.3862 25.3726 79.3093 25.1902 79.3069 24.9992V23.7292ZM87.9629 19.0822C87.9629 19.5972 88.0509 20.0972 88.2259 20.5742C88.4009 21.0552 88.6569 21.4782 88.9989 21.8472C89.3389 22.2162 89.7489 22.5112 90.2269 22.7312C90.7049 22.9512 91.2479 23.0622 91.8539 23.0622C92.4599 23.0622 93.0039 22.9522 93.4819 22.7322C93.9431 22.5252 94.3579 22.2275 94.7015 21.8567C95.0451 21.4859 95.3105 21.0498 95.4819 20.5742C95.6549 20.0972 95.7419 19.5972 95.7419 19.0822C95.7419 18.5672 95.6549 18.0672 95.4819 17.5882C95.3114 17.1176 95.049 16.6855 94.7099 16.3172C94.3632 15.9439 93.9458 15.6431 93.4819 15.4322C92.97 15.2041 92.4144 15.0904 91.8539 15.0992C91.2479 15.0992 90.7039 15.2122 90.2269 15.4322C89.7489 15.6532 89.3399 15.9482 88.9989 16.3172C88.6569 16.6862 88.4009 17.1082 88.2259 17.5872C88.0509 18.0672 87.9629 18.5672 87.9629 19.0822ZM84.6539 19.0822C84.6539 18.0312 84.8429 17.0772 85.2199 16.2202C85.5762 15.3915 86.0971 14.6437 86.7509 14.0222C87.4115 13.4036 88.1895 12.9237 89.0389 12.6112C89.9396 12.2769 90.8932 12.1081 91.8539 12.1132C92.8469 12.1132 93.7849 12.2802 94.6669 12.6112C95.5166 12.924 96.2952 13.4034 96.9569 14.0212C97.6107 14.6434 98.1318 15.3914 98.4889 16.2202C98.8649 17.0772 99.0549 18.0302 99.0549 19.0822C99.0549 20.1322 98.8649 21.0872 98.4879 21.9442C98.1313 22.7726 97.6109 23.5202 96.9579 24.1422C96.2968 24.7607 95.518 25.2399 94.6679 25.5512C93.7679 25.8866 92.8143 26.055 91.8539 26.0482C90.8599 26.0482 89.9239 25.8842 89.0389 25.5512C88.1892 25.2404 87.411 24.7612 86.7509 24.1422C86.0974 23.5207 85.5769 22.7729 85.2209 21.9442C84.8429 21.0872 84.6539 20.1332 84.6539 19.0822ZM100.723 7.94024C100.723 7.40424 100.92 6.94024 101.315 6.54224C101.713 6.14624 102.214 5.94824 102.82 5.94824C103.426 5.94824 103.938 6.13824 104.351 6.51624C104.764 6.89324 104.973 7.36824 104.973 7.94024C104.973 8.51124 104.764 8.98624 104.351 9.36424C103.938 9.74224 103.426 9.93124 102.82 9.93124C102.214 9.93124 101.713 9.73324 101.315 9.33524C100.92 8.93924 100.723 8.47524 100.723 7.94024ZM114.388 16.1232C114.058 16.1232 113.815 15.8732 113.773 15.7632C113.498 15.0402 112.621 14.7692 111.913 14.7692C110.796 14.7692 109.92 15.2872 109.92 16.1792C109.92 17.0422 110.768 17.2192 111.292 17.3772C111.867 17.5522 112.965 17.7922 113.57 17.9342C114.169 18.0738 114.749 18.2878 115.295 18.5712C117.052 19.4862 117.303 20.9242 117.303 21.7912C117.303 24.9872 114.142 26.0482 111.948 26.0482C110.257 26.0482 107.08 25.7912 106.382 22.5602C106.314 22.2452 106.592 21.7622 107.102 21.7622H108.93C109.29 21.7622 109.532 22.0252 109.602 22.2322C109.837 22.8812 110.584 23.3712 111.842 23.3712C113.193 23.3712 113.991 22.8342 113.991 22.1212C113.991 21.6592 113.73 21.2492 113.389 21.0172C112.365 20.3212 109.833 20.2422 108.458 19.5092C107.932 19.2292 106.61 18.5872 106.61 16.3992C106.61 13.3852 109.345 12.1132 111.747 12.1132C115.291 12.1132 116.591 14.3572 116.738 15.1892C116.819 15.6482 116.562 16.1232 116.047 16.1232H114.388ZM117.573 14.4802V13.1082C117.573 12.7802 117.831 12.3872 118.289 12.3872H120.054V9.01724C120.054 8.65724 120.298 8.43724 120.483 8.35724C120.592 8.30824 121.58 7.87724 122.368 7.53224C122.919 7.30524 123.365 7.76024 123.365 8.19824V12.3872H126.287C126.738 12.3872 127.007 12.7822 127.007 13.1082V14.4822C127.002 14.672 126.925 14.8527 126.791 14.9872C126.657 15.1218 126.477 15.2002 126.287 15.2062H123.365V21.0132C123.365 21.6772 123.347 22.1952 123.6 22.5792C123.832 22.9302 124.172 23.0602 124.854 23.0602C125.05 23.0602 125.224 23.0282 125.372 22.9772C125.53 22.9172 125.705 22.9163 125.864 22.9747C126.023 23.0331 126.155 23.147 126.237 23.2952C126.453 23.7132 126.7 24.1722 126.872 24.5012C127.062 24.8622 126.91 25.3252 126.562 25.4942C126.002 25.7672 125.226 25.9882 124.162 25.9882C123.279 25.9882 122.779 25.8912 122.221 25.6982C121.67 25.4949 121.182 25.15 120.806 24.6982C120.483 24.3022 120.323 23.7722 120.204 23.1822C120.083 22.5922 120.054 21.8772 120.054 21.1022V15.2062H118.293C117.831 15.2062 117.573 14.8062 117.573 14.4802ZM41.8359 14.4802V13.1082C41.8359 12.7802 42.0939 12.3872 42.5509 12.3872H44.5679V9.01724C44.5679 8.65724 44.8119 8.43724 44.9969 8.35724L46.8819 7.53224C47.4329 7.30524 47.8789 7.76024 47.8789 8.19824V12.3872H50.8009C51.2519 12.3872 51.5209 12.7822 51.5209 13.1082V14.4822C51.5157 14.6719 51.4383 14.8524 51.3045 14.987C51.1707 15.1215 50.9906 15.1999 50.8009 15.2062H47.8799V21.0132C47.8799 21.6772 47.8619 22.1952 48.1149 22.5792C48.3469 22.9302 48.6869 23.0602 49.3689 23.0602C49.5649 23.0602 49.7389 23.0282 49.8869 22.9772C50.0453 22.9174 50.2198 22.9166 50.3787 22.975C50.5376 23.0334 50.6701 23.1471 50.7519 23.2952C50.9679 23.7132 51.2149 24.1722 51.3879 24.5012C51.5779 24.8622 51.4249 25.3252 51.0779 25.4942C50.5169 25.7672 49.7409 25.9882 48.6769 25.9882C47.7939 25.9882 47.2949 25.8912 46.7359 25.6982C46.1849 25.4949 45.6972 25.15 45.3219 24.6982C44.9979 24.3022 44.8379 23.7722 44.7189 23.1822C44.5979 22.5922 44.5689 21.8772 44.5689 21.1022V15.2062H42.5569C42.0949 15.2062 41.8369 14.8062 41.8369 14.4802H41.8359ZM101.891 25.7202H103.762C104.158 25.7202 104.482 25.3962 104.482 25.0002V13.1072C104.482 12.9162 104.406 12.733 104.271 12.5977C104.136 12.4624 103.953 12.386 103.762 12.3852H101.891C101.7 12.386 101.517 12.4624 101.382 12.5977C101.247 12.733 101.171 12.9162 101.171 13.1072V25.0002C101.171 25.3972 101.495 25.7222 101.891 25.7222V25.7202Z" fill="#E44232"/>
</g>
</svg>
