<svg xmlns="http://www.w3.org/2000/svg" width="24" height="24" fill="none" viewBox="0 0 24 24"><path fill="currentColor" fill-rule="evenodd" d="M11 12a4 4 0 1 1 0-8 4 4 0 0 1 0 8m7.427 3.62C16.803 14.196 14.323 13.5 11 13.5s-5.803.697-7.427 2.12A2.5 2.5 0 0 0 5.22 20h11.56a2.5 2.5 0 0 0 1.647-4.38m-14.195.752C5.647 15.133 7.898 14.5 11 14.5s5.354.633 6.768 1.872A1.5 1.5 0 0 1 16.78 19H5.22a1.5 1.5 0 0 1-.988-2.628M14 8a3 3 0 1 1-6 0 3 3 0 0 1 6 0m2.5 2a.5.5 0 1 1 0-1H19V6.5a.5.5 0 0 1 1 0V9h2.5a.5.5 0 0 1 0 1H20v2.5a.5.5 0 1 1-1 0V10z" clip-rule="evenodd"/></svg>